<svg width="21" height="22" viewBox="0 0 21 22" fill="none" xmlns="http://www.w3.org/2000/svg">
<path d="M9.71 16.6716C8.17063 16.5988 6.71846 15.9352 5.65514 14.8188C4.59181 13.7024 3.99905 12.2189 4 10.6765C4 7.36367 6.69 4.67138 10 4.67138C13.22 4.67138 15.84 7.20353 15.99 10.3862L13.89 9.7557C13.7266 9.06189 13.3809 8.42436 12.8889 7.90901C12.3968 7.39365 11.7761 7.01918 11.091 6.82429C10.4059 6.62941 9.68128 6.62118 8.99195 6.80046C8.30262 6.97975 7.67363 7.34003 7.17001 7.84408C6.66639 8.34813 6.30641 8.97766 6.12728 9.66758C5.94814 10.3575 5.95636 11.0828 6.15108 11.7685C6.34581 12.4541 6.71996 13.0753 7.23488 13.5678C7.74979 14.0603 8.38678 14.4062 9.08 14.5698L9.71 16.6716ZM20 10.6765C20 10.9767 19.99 11.277 19.96 11.5773L17.99 10.9868C18 10.8867 18 10.7766 18 10.6765C18 6.25272 14.42 2.66967 10 2.66967C5.58 2.66967 2 6.25272 2 10.6765C2 15.1003 5.58 18.6833 10 18.6833C10.1 18.6833 10.21 18.6833 10.31 18.6733L10.9 20.645C10.6 20.675 10.3 20.685 10 20.685C4.48 20.685 0 16.2012 0 10.6765C0 5.15178 4.48 0.667969 10 0.667969C15.52 0.667969 20 5.15178 20 10.6765ZM16.23 14.9401L20 13.679L10 10.6765L13 20.685L14.26 16.9118L18.53 21.1854L20.51 19.2037L16.23 14.9401Z" fill="#797979"/>
</svg>
