<svg width="26" height="19" viewBox="0 0 26 19" fill="none" xmlns="http://www.w3.org/2000/svg">
<path d="M10.1208 0.261719L0 8.66339H2.39295V18.6912H17.4219V8.66339H20.0386L10.1208 0.261719ZM12.3881 15.7664H7.65017L8.64375 11.2911C8.04301 10.8733 7.65017 10.244 7.65017 9.47355C7.65017 8.20419 8.71096 7.20099 10.0189 7.20099C11.3277 7.20099 12.3881 8.24264 12.3881 9.51199C12.3881 10.2829 11.9952 10.8678 11.3949 11.2844L12.3881 15.7664Z" fill="#797979"/>
<path d="M19.9258 3.21306L20.6448 3.93268L22.8277 1.74786L25.0107 3.93268L25.7297 3.21306L22.8277 0.308624L19.9258 3.21306Z" fill="#797979"/>
<path d="M19.9258 5.75993L20.6448 6.47955L22.8277 4.29474L25.0107 6.47955L25.7297 5.75993L22.8277 2.8555L19.9258 5.75993Z" fill="#797979"/>
</svg>
