<svg width="18" height="19" viewBox="0 0 18 19" fill="none" xmlns="http://www.w3.org/2000/svg">
<path d="M4.5 1.12939C4.5 0.980074 4.44074 0.836878 4.33525 0.731299C4.22976 0.62572 4.08668 0.566406 3.9375 0.566406C3.78832 0.566406 3.64524 0.62572 3.53975 0.731299C3.43426 0.836878 3.375 0.980074 3.375 1.12939V1.69236H2.25C1.65326 1.69236 1.08097 1.92962 0.65901 2.35194C0.237053 2.77425 0 3.34704 0 3.94428L0 5.07024H18V3.94428C18 3.34704 17.7629 2.77425 17.341 2.35194C16.919 1.92962 16.3467 1.69236 15.75 1.69236H14.625V1.12939C14.625 0.980074 14.5657 0.836878 14.4602 0.731299C14.3548 0.62572 14.2117 0.566406 14.0625 0.566406C13.9133 0.566406 13.7702 0.62572 13.6648 0.731299C13.5593 0.836878 13.5 0.980074 13.5 1.12939V1.69236H4.5V1.12939ZM18 16.3298V6.1962H0V16.3298C0 16.9271 0.237053 17.4998 0.65901 17.9222C1.08097 18.3445 1.65326 18.5817 2.25 18.5817H15.75C16.3467 18.5817 16.919 18.3445 17.341 17.9222C17.7629 17.4998 18 16.9271 18 16.3298ZM12.2108 10.5356L8.83575 13.9135C8.7835 13.9659 8.72143 14.0075 8.65309 14.0359C8.58475 14.0643 8.51149 14.0789 8.4375 14.0789C8.36351 14.0789 8.29025 14.0643 8.22191 14.0359C8.15357 14.0075 8.0915 13.9659 8.03925 13.9135L6.35175 12.2246C6.24613 12.1189 6.18679 11.9755 6.18679 11.826C6.18679 11.6765 6.24613 11.5331 6.35175 11.4274C6.45737 11.3217 6.60063 11.2623 6.75 11.2623C6.89937 11.2623 7.04263 11.3217 7.14825 11.4274L8.4375 12.7189L11.4142 9.73846C11.5199 9.63275 11.6631 9.57336 11.8125 9.57336C11.9619 9.57336 12.1051 9.63275 12.2108 9.73846C12.3164 9.84417 12.3757 9.98755 12.3757 10.1371C12.3757 10.2866 12.3164 10.4299 12.2108 10.5356Z" fill="#797979"/>
</svg>
