<svg width="64" height="64" viewBox="0 0 64 64" fill="none" xmlns="http://www.w3.org/2000/svg">
<g filter="url(#filter0_d_1_4035)">
<rect x="8" y="4.29379" width="48" height="47.4617" rx="23.7308" fill="url(#paint0_linear_1_4035)"/>
</g>
<path d="M33 20.1144V22.0919H23V35.3268L24.763 33.9574H39V27.0359H41V34.9461C41 35.2084 40.8946 35.4599 40.7071 35.6453C40.5196 35.8308 40.2652 35.9349 40 35.9349H25.455L21 39.3957V21.1032C21 20.8409 21.1054 20.5894 21.2929 20.404C21.4804 20.2185 21.7348 20.1144 22 20.1144H33ZM38 20.1144V17.148H40V20.1144H43V22.0919H40V25.0583H38V22.0919H35V20.1144H38Z" fill="white"/>
<defs>
<filter id="filter0_d_1_4035" x="0" y="0.293793" width="64" height="63.4617" filterUnits="userSpaceOnUse" color-interpolation-filters="sRGB">
<feFlood flood-opacity="0" result="BackgroundImageFix"/>
<feColorMatrix in="SourceAlpha" type="matrix" values="0 0 0 0 0 0 0 0 0 0 0 0 0 0 0 0 0 0 127 0" result="hardAlpha"/>
<feOffset dy="4"/>
<feGaussianBlur stdDeviation="4"/>
<feComposite in2="hardAlpha" operator="out"/>
<feColorMatrix type="matrix" values="0 0 0 0 0.0431373 0 0 0 0 0.435294 0 0 0 0 0.466667 0 0 0 0.2 0"/>
<feBlend mode="normal" in2="BackgroundImageFix" result="effect1_dropShadow_1_4035"/>
<feBlend mode="normal" in="SourceGraphic" in2="effect1_dropShadow_1_4035" result="shape"/>
</filter>
<linearGradient id="paint0_linear_1_4035" x1="-31.2348" y1="1.44611" x2="63.8001" y2="9.87954" gradientUnits="userSpaceOnUse">
<stop stop-color="#0B6F77"/>
<stop offset="1" stop-color="#9EC341"/>
</linearGradient>
</defs>
</svg>
