<svg width="20" height="19" viewBox="0 0 20 19" fill="none" xmlns="http://www.w3.org/2000/svg">
<path d="M7.246 11.53C8.213 11.53 8.996 12.3147 8.996 13.2815V16.7845C8.996 17.249 8.81163 17.6945 8.48344 18.023C8.15525 18.3514 7.71013 18.536 7.246 18.536H1.75C1.28587 18.536 0.840752 18.3514 0.512563 18.023C0.184375 17.6945 0 17.249 0 16.7845V13.2815C0 12.3147 0.784 11.53 1.75 11.53H7.246ZM18.25 11.53C19.216 11.53 20 12.3147 20 13.2815V16.7845C20 17.249 19.8156 17.6945 19.4874 18.023C19.1592 18.3514 18.7141 18.536 18.25 18.536H12.754C12.2899 18.536 11.8448 18.3514 11.5166 18.023C11.1884 17.6945 11.004 17.249 11.004 16.7845V13.2815C11.004 12.3147 11.787 11.53 12.754 11.53H18.25ZM18.25 0.515625C19.216 0.515625 20 1.30029 20 2.26712V7.7748C20.0001 8.0049 19.955 8.23276 19.8671 8.44538C19.7792 8.65799 19.6503 8.85119 19.4878 9.01394C19.3253 9.17669 19.1323 9.30579 18.9199 9.39388C18.7075 9.48196 18.4799 9.5273 18.25 9.5273H1.75C1.28587 9.5273 0.840752 9.34276 0.512563 9.0143C0.184375 8.68583 0 8.24033 0 7.7758V2.26712C1.64046e-05 1.82755 0.165171 1.40406 0.46268 1.08071C0.760189 0.757366 1.1683 0.5578 1.606 0.52163L1.75 0.515625H18.25Z" fill="#797979"/>
</svg>
