<svg width="35" height="35" viewBox="0 0 35 35" fill="none" xmlns="http://www.w3.org/2000/svg">
<path d="M8.56046 13.6419C5.45197 10.498 5.4793 5.42668 8.62195 2.31694C10.1318 0.826997 12.1608 9.84108e-06 14.2719 9.84108e-06H14.3129C18.6989 -0.00682476 22.2651 3.54717 22.272 7.94182V8.01016C22.3061 12.398 18.7809 15.993 14.388 16.0272H14.2719C12.1267 16.0272 10.0703 15.1728 8.56046 13.6419ZM27.3958 32.9223C26.4052 34.1525 24.8954 34.8701 23.1396 34.9385C22.108 34.9795 21.0012 35 19.6622 35C18.7467 35 17.8108 34.9932 16.9158 34.9863C16.2326 34.9795 15.5358 34.9727 14.8389 34.9727V34.9863H14.1831C13.3427 34.9863 12.5024 34.9863 11.6621 34.9932C10.8218 35 9.98148 35 9.14116 35C7.95926 35 6.97547 34.9932 6.06001 34.9863C3.87382 34.959 2.15219 34.2277 1.09326 32.8676C0.0343229 31.5075 -0.266278 29.6553 0.239278 27.523C0.942958 24.5499 2.74656 21.8297 5.32217 19.8682C7.88411 17.9135 11.0404 16.8405 14.2036 16.8405C14.3402 16.8405 14.4768 16.8405 14.6066 16.8473C21.5068 17.0455 27.3412 21.8571 28.4821 28.2953C28.7827 30.0244 28.4001 31.6716 27.3958 32.9223ZM28.8647 18.761C27.6691 18.761 26.6922 17.7905 26.6922 16.5876V14.8311H24.9295C23.734 14.8106 22.7775 13.8196 22.798 12.6235C22.8185 11.4548 23.7613 10.5116 24.9295 10.4911H26.6922V8.7278C26.7127 7.53174 27.7033 6.5749 28.8988 6.5954C30.0671 6.6159 31.0099 7.55908 31.0304 8.7278V10.4911H32.793C33.9886 10.4706 34.9792 11.4275 34.9997 12.6235C35.0202 13.8196 34.0637 14.8106 32.8681 14.8311H31.0304V16.5944C31.0372 17.7905 30.0671 18.761 28.8647 18.761Z" fill="#558F69"/>
</svg>
