<svg width="22" height="18" viewBox="0 0 22 18" fill="none" xmlns="http://www.w3.org/2000/svg">
<path d="M20 5.625C18.55 5.625 17.74 7.06623 18.07 8.13714L14.52 11.7002C14.22 11.6101 13.78 11.6101 13.48 11.7002L10.93 9.148C11.27 8.07709 10.46 6.62585 9 6.62585C7.55 6.62585 6.73 8.06708 7.07 9.148L2.51 13.7019C1.44 13.3716 0 14.1823 0 15.6335C0 16.7345 0.9 17.6352 2 17.6352C3.45 17.6352 4.26 16.194 3.93 15.1231L8.48 10.5592C8.78 10.6493 9.22 10.6493 9.52 10.5592L12.07 13.1114C11.73 14.1823 12.54 15.6335 14 15.6335C15.45 15.6335 16.27 14.1923 15.93 13.1114L19.49 9.55835C20.56 9.88863 22 9.07794 22 7.6267C22 6.52577 21.1 5.625 20 5.625Z" fill="#797979"/>
<path d="M14 6.6262L14.94 4.55444L17 3.62365L14.94 2.69286L14 0.621094L13.08 2.69286L11 3.62365L13.08 4.55444L14 6.6262ZM2.5 8.62791L3 6.6262L5 6.12578L3 5.62535L2.5 3.62365L2 5.62535L0 6.12578L2 6.6262L2.5 8.62791Z" fill="#797979"/>
</svg>
