<svg width="28" height="35" viewBox="0 0 28 35" fill="none" xmlns="http://www.w3.org/2000/svg">
<path d="M3.52485 35H24.4751C26.4188 35 28 33.5565 28 31.7821V16.8227C28 15.0475 26.4188 13.6033 24.4751 13.6033H15.2032L15.8999 12.585C16.1345 12.2422 16.5386 12.0376 16.9811 12.0376H20.8104C22.5685 12.0376 23.9987 10.7319 23.9987 9.12693V2.91067C23.9986 1.30573 22.5684 0 20.8103 0H7.51365C5.75564 0 4.32538 1.30573 4.32538 2.91067V9.12693C4.32538 10.7319 5.75564 12.0376 7.51365 12.0376H11.3429C11.7854 12.0376 12.1896 12.2422 12.4241 12.585L13.1208 13.6033H3.5265C1.58197 13.6033 0 15.0475 0 16.8227V19.0477C0 19.4252 0.335233 19.7313 0.748789 19.7313C1.16235 19.7313 1.49758 19.4252 1.49758 19.0477V16.8227C1.49758 15.8014 2.40773 14.9705 3.5265 14.9705H24.4752C25.5931 14.9705 26.5025 15.8013 26.5025 16.8227V25.099L21.6143 20.6363C20.3361 19.4694 18.2025 19.4694 16.9243 20.6363L9.89907 27.0499C9.72595 27.2079 9.44942 27.2017 9.27623 27.0493L8.3189 26.175C7.04027 25.0072 4.90734 25.007 3.62841 26.1745L1.49765 28.1197V25.0469C1.49765 24.6694 1.16242 24.3633 0.748864 24.3633C0.335308 24.3633 7.48378e-05 24.6694 7.48378e-05 25.0469V31.7819C-4.11358e-08 33.5565 1.58122 35 3.52485 35ZM11.3429 10.6704H7.51365C6.58141 10.6704 5.82296 9.97801 5.82296 9.12693V2.91067C5.82296 2.0596 6.58141 1.36719 7.51365 1.36719H20.8104C21.7427 1.36719 22.5011 2.0596 22.5011 2.91067V9.12693C22.5011 9.97801 21.7427 10.6704 20.8104 10.6704H16.9811C16.0186 10.6704 15.1396 11.1154 14.6298 11.8606L14.1621 12.5443L13.6943 11.8606C13.1843 11.1154 12.3053 10.6704 11.3429 10.6704ZM4.68735 27.1413C5.38874 26.5009 6.55835 26.501 7.25966 27.1415L11.3721 30.8963C11.6604 31.1594 12.1427 31.1594 12.4311 30.8963C12.7235 30.6294 12.7235 30.1965 12.4311 29.9295L10.6112 28.2681C10.737 28.1966 10.8533 28.1122 10.9581 28.0165L17.9833 21.6031C18.6924 20.9556 19.8464 20.9558 20.5553 21.6031L26.5026 27.0325V31.7821C26.5026 32.8026 25.5931 33.6328 24.4753 33.6328H3.5265C2.40781 33.6328 1.49758 32.8025 1.49758 31.7821V30.0533L4.68735 27.1413Z" fill="#558F69"/>
<path d="M8.88349 22.9566C10.5493 22.9566 11.9046 21.7194 11.9046 20.1986C11.9046 18.6778 10.5493 17.4405 8.88349 17.4405C7.21766 17.4405 5.86242 18.6778 5.86242 20.1986C5.86242 21.7194 7.21766 22.9566 8.88349 22.9566ZM8.88349 18.8077C9.72355 18.8077 10.407 19.4317 10.407 20.1986C10.407 20.9655 9.72355 21.5894 8.88349 21.5894C8.04342 21.5894 7.36 20.9655 7.36 20.1986C7.36 19.4317 8.04342 18.8077 8.88349 18.8077ZM14.7326 6.48564C15.0598 6.12475 15.2386 5.67082 15.2382 5.20232C15.2382 4.09135 14.2481 3.1875 13.0312 3.1875C12.5765 3.1875 12.1387 3.31745 11.7743 3.54782C11.4099 3.31745 10.972 3.1875 10.5173 3.1875C9.30041 3.1875 8.31036 4.09135 8.31036 5.20232C8.31036 5.69451 8.52062 6.25055 8.91861 6.59638L11.258 8.62945C11.5435 8.87746 12.0052 8.87753 12.2906 8.62945C12.2906 8.62939 14.7032 6.52535 14.7326 6.48564ZM13.5556 5.63832C13.5478 5.64611 13.5402 5.65411 13.5328 5.66225L11.7743 7.19042L10.0151 5.66163C9.89256 5.52628 9.80787 5.38273 9.80787 5.20226C9.80787 4.84515 10.1261 4.55462 10.5173 4.55462C10.771 4.55462 10.9998 4.67425 11.1291 4.87461C11.413 5.31437 12.1353 5.31464 12.4193 4.87461C12.5486 4.67425 12.7773 4.55462 13.031 4.55462C13.4222 4.55462 13.7404 4.84515 13.7404 5.20226C13.7408 5.3636 13.6748 5.51919 13.5556 5.63832ZM17.9117 4.58511H18.1468V8.10384C18.1468 8.48132 18.4821 8.78743 18.8956 8.78743C19.3091 8.78743 19.6444 8.48132 19.6444 8.10384V3.90151C19.6444 3.52403 19.3091 3.21792 18.8956 3.21792H17.9117C17.4982 3.21792 17.1629 3.52403 17.1629 3.90151C17.1629 4.27899 17.4982 4.58511 17.9117 4.58511ZM0.0596789 22.2382C0.180309 22.5068 0.488361 22.681 0.805772 22.6584C1.12446 22.6358 1.39904 22.4263 1.47729 22.143C1.64045 21.5524 0.902666 21.0774 0.345716 21.4025C0.0453022 21.5779 -0.0771998 21.938 0.0596789 22.2382Z" fill="#558F69"/>
</svg>
