<svg width="28" height="28" viewBox="0 0 28 28" fill="none" xmlns="http://www.w3.org/2000/svg">
<g filter="url(#filter0_d_1_3945)">
<path d="M7.5 9C7.89782 9 8.27936 8.84196 8.56066 8.56066C8.84196 8.27936 9 7.89782 9 7.5C9 7.10218 8.84196 6.72064 8.56066 6.43934C8.27936 6.15804 7.89782 6 7.5 6C7.10218 6 6.72064 6.15804 6.43934 6.43934C6.15804 6.72064 6 7.10218 6 7.5C6 7.89782 6.15804 8.27936 6.43934 8.56066C6.72064 8.84196 7.10218 9 7.5 9ZM19.41 11.58C19.77 11.94 20 12.44 20 13C20 13.55 19.78 14.05 19.41 14.41L14.41 19.41C14.2245 19.5964 14.004 19.7444 13.7612 19.8453C13.5184 19.9463 13.258 19.9982 12.995 19.9982C12.732 19.9982 12.4716 19.9463 12.2288 19.8453C11.986 19.7444 11.7655 19.5964 11.58 19.41L4.59 12.42C4.22 12.05 4 11.55 4 11V6C4 4.89 4.89 4 6 4H11C11.55 4 12.05 4.22 12.41 4.58L19.41 11.58ZM15.54 5.71L16.54 4.71L23.41 11.58C23.78 11.94 24 12.45 24 13C24 13.55 23.78 14.05 23.42 14.41L18.04 19.79L17.04 18.79L22.75 13L15.54 5.71Z" fill="#797979"/>
</g>
<defs>
<filter id="filter0_d_1_3945" x="-2" y="0" width="32" height="32" filterUnits="userSpaceOnUse" color-interpolation-filters="sRGB">
<feFlood flood-opacity="0" result="BackgroundImageFix"/>
<feColorMatrix in="SourceAlpha" type="matrix" values="0 0 0 0 0 0 0 0 0 0 0 0 0 0 0 0 0 0 127 0" result="hardAlpha"/>
<feOffset dy="4"/>
<feGaussianBlur stdDeviation="2"/>
<feComposite in2="hardAlpha" operator="out"/>
<feColorMatrix type="matrix" values="0 0 0 0 0 0 0 0 0 0 0 0 0 0 0 0 0 0 0.25 0"/>
<feBlend mode="normal" in2="BackgroundImageFix" result="effect1_dropShadow_1_3945"/>
<feBlend mode="normal" in="SourceGraphic" in2="effect1_dropShadow_1_3945" result="shape"/>
</filter>
</defs>
</svg>
