<svg width="35" height="35" viewBox="0 0 35 35" fill="none" xmlns="http://www.w3.org/2000/svg">
<path d="M14.9239 9.18559C17.4146 11.4291 21.4641 9.32729 21.3991 5.78496C21.3984 4.63632 20.9754 3.53494 20.2231 2.72273C19.4707 1.91052 18.4505 1.45391 17.3865 1.4532C13.5989 1.43026 11.9307 6.7424 14.9239 9.18559Z" fill="#558F69"/>
<path d="M10.8778 16.0367C11.1175 16.4487 11.4503 16.788 11.8448 17.023C12.2394 17.258 12.6828 17.3809 13.1335 17.3801H21.6374C22.0852 17.3755 22.5248 17.25 22.9162 17.015C23.3075 16.78 23.6381 16.4429 23.8779 16.0346C24.1176 15.6263 24.2588 15.1596 24.2887 14.6773C24.3185 14.1949 24.236 13.7122 24.0487 13.273C23.415 11.8376 22.3966 10.6407 21.1255 9.83731C20.1312 10.9052 18.7879 11.5083 17.3854 11.5167C15.9819 11.5032 14.6384 10.9006 13.6391 9.83664C11.864 11.0289 9.53024 13.6428 10.8778 16.0367ZM24.5475 7.73081C27.0413 9.97361 31.1114 7.89274 31.0427 4.33017C31.0426 3.59648 30.8699 2.87482 30.5407 2.23293C30.2115 1.59104 29.7366 1.04997 29.1607 0.6605C28.5847 0.271027 27.9265 0.0459235 27.2479 0.00631546C26.5692 -0.0332926 25.8924 0.113894 25.2808 0.434061C24.6693 0.754228 24.1432 1.23688 23.7518 1.83671C23.3604 2.43654 23.1167 3.13389 23.0434 3.86331C22.97 4.59272 23.0696 5.33029 23.3327 6.00678C23.5958 6.68327 24.0138 7.27651 24.5475 7.73081Z" fill="#558F69"/>
<path d="M25.8044 12.3712C26.104 13.0483 26.257 13.7901 26.2519 14.5404C26.2498 14.9951 26.1888 15.4473 26.0707 15.8838C26.1442 15.9182 26.2237 15.935 26.3038 15.9331H31.2752C31.7258 15.9338 32.1692 15.811 32.5638 15.576C32.9584 15.341 33.2911 15.0016 33.5308 14.5897C34.8809 12.1964 32.5521 9.57509 30.7764 8.38959C28.6751 10.7147 25.3031 10.4637 23.2181 8.41725C22.6299 8.69659 23.7094 9.13449 23.9637 9.57239C24.7252 10.381 25.3483 11.3285 25.8044 12.3712ZM5.27014 7.73915C5.77347 8.16567 6.364 8.45606 6.99244 8.58609C7.62088 8.71611 8.26902 8.68201 8.88276 8.48661C9.49651 8.29121 10.0581 7.9402 10.5206 7.46285C10.9831 6.9855 11.3332 6.39566 11.5416 5.74254C11.75 5.08943 11.8107 4.39198 11.7186 3.7084C11.6265 3.02481 11.3843 2.37491 11.0122 1.81292C10.6402 1.25094 10.149 0.79316 9.57967 0.47779C9.01037 0.16242 8.37946 -0.00139618 7.73958 8.96368e-06C6.91146 0.0148809 6.10766 0.304616 5.4374 0.829848C4.76714 1.35508 4.26291 2.09034 3.99323 2.93572C3.72355 3.7811 3.7015 4.69562 3.93006 5.55501C4.15863 6.41439 4.62673 7.17698 5.27077 7.73915H5.27014Z" fill="#558F69"/>
<path d="M3.49509 15.933H8.46646C8.54821 15.9308 8.62907 15.9142 8.70584 15.8838C8.58206 15.4485 8.51887 14.9957 8.51834 14.5404C8.49959 12.6329 9.61337 10.8901 10.8121 9.57236C11.0728 9.12906 12.1359 8.69724 11.5515 8.4179C9.47024 10.4792 6.05765 10.7012 3.99385 8.38281C2.21881 9.57708 -0.110003 12.1944 1.23878 14.589C1.47848 15.0011 1.81132 15.3407 2.20601 15.5758C2.60071 15.8109 3.04429 15.9339 3.49509 15.933ZM34.9071 25.1033C34.7743 24.7172 34.5109 24.3998 34.1699 24.2151C33.8289 24.0304 33.4357 23.9921 33.0696 24.108L23.3281 27.2185C23.0995 28.0142 22.6227 28.6999 21.9786 29.1587C21.3345 29.6176 20.5631 29.8213 19.7955 29.7353L14.4397 29.1577C14.3504 29.1491 14.2636 29.1214 14.1843 29.0763C14.105 29.0311 14.0347 28.9695 13.9776 28.8949C13.9205 28.8203 13.8777 28.7341 13.8516 28.6415C13.8255 28.5489 13.8167 28.4517 13.8256 28.3554C13.8346 28.2591 13.8612 28.1656 13.9038 28.0805C13.9465 27.9953 14.0043 27.9201 14.074 27.8593C14.1437 27.7984 14.224 27.7531 14.31 27.7259C14.3961 27.6988 14.4863 27.6903 14.5754 27.701L19.9317 28.2792C20.4016 28.3245 20.871 28.1882 21.2565 27.8946C21.6419 27.6011 21.9182 27.1693 22.0362 26.6763C22.1542 26.1832 22.1061 25.661 21.9007 25.2026C21.6952 24.7442 21.3456 24.3795 20.9143 24.1735L13.1385 20.5806C12.3548 20.3282 11.5318 20.2505 10.7195 20.3524C9.90716 20.4542 9.12253 20.7334 8.41334 21.173L0 26.4203L3.32883 32.6481L17.0773 34.903C18.7143 35.1737 20.3887 34.8735 21.8568 34.0461L34.1946 27.1086C34.5181 26.9241 34.7686 26.6191 34.8996 26.2503C35.0307 25.8816 35.0333 25.474 34.9071 25.1033Z" fill="#558F69"/>
</svg>
