<svg width="20" height="21" viewBox="0 0 20 21" fill="none" xmlns="http://www.w3.org/2000/svg">
<path d="M11.8762 20.7905H8.12446C7.88939 20.7905 7.66137 20.7125 7.47821 20.5694C7.29506 20.4264 7.16777 20.2268 7.11747 20.0038L6.69798 18.1182C6.13837 17.8801 5.60775 17.5824 5.11586 17.2304L3.22248 17.8159C2.99837 17.8853 2.75656 17.8782 2.5372 17.7957C2.31783 17.7133 2.13412 17.5604 2.01657 17.3626L0.136589 14.2089C0.02027 14.0108 -0.0233931 13.7803 0.0127429 13.5551C0.0488788 13.3298 0.162674 13.1231 0.335512 12.9688L1.80425 11.6677C1.73746 11.0783 1.73746 10.4836 1.80425 9.8942L0.335512 8.5961C0.162429 8.44174 0.0484793 8.23486 0.0123374 8.00938C-0.0238044 7.7839 0.0200061 7.55318 0.136589 7.35504L2.01245 4.19935C2.13 4.0015 2.31371 3.84865 2.53307 3.76617C2.75243 3.6837 2.99425 3.67657 3.21836 3.74597L5.11174 4.33147C5.36323 4.15131 5.62503 3.98317 5.89507 3.83104C6.15583 3.68892 6.42381 3.55981 6.69798 3.44471L7.1185 1.56111C7.16856 1.33812 7.29561 1.13844 7.47857 0.995175C7.66153 0.851914 7.88942 0.773678 8.12446 0.773438H11.8762C12.1112 0.773678 12.3391 0.851914 12.5221 0.995175C12.705 1.13844 12.8321 1.33812 12.8821 1.56111L13.3068 3.44571C13.8657 3.68518 14.3961 3.98284 14.8889 4.33347L16.7833 3.74797C17.0073 3.67883 17.2489 3.68609 17.468 3.76855C17.6871 3.85101 17.8707 4.00372 17.9882 4.20136L19.864 7.35704C20.1032 7.76439 20.0207 8.27983 19.6651 8.5971L18.1964 9.8982C18.2632 10.4876 18.2632 11.0823 18.1964 11.6717L19.6651 12.9728C20.0207 13.2911 20.1032 13.8055 19.864 14.2129L17.9882 17.3686C17.8706 17.5664 17.6869 17.7193 17.4676 17.8017C17.2482 17.8842 17.0064 17.8913 16.7823 17.8219L14.8889 17.2365C14.3974 17.5881 13.8671 17.8855 13.3078 18.1232L12.8821 20.0038C12.8319 20.2266 12.7047 20.4261 12.5218 20.5691C12.3388 20.7122 12.1111 20.7903 11.8762 20.7905ZM9.99619 6.77855C8.90277 6.77855 7.85412 7.20034 7.08095 7.95112C6.30779 8.7019 5.87342 9.72019 5.87342 10.782C5.87342 11.8437 6.30779 12.862 7.08095 13.6128C7.85412 14.3636 8.90277 14.7854 9.99619 14.7854C11.0896 14.7854 12.1383 14.3636 12.9114 13.6128C13.6846 12.862 14.119 11.8437 14.119 10.782C14.119 9.72019 13.6846 8.7019 12.9114 7.95112C12.1383 7.20034 11.0896 6.77855 9.99619 6.77855Z" fill="#797979"/>
</svg>
