<svg width="21" height="19" viewBox="0 0 21 19" fill="none" xmlns="http://www.w3.org/2000/svg">
<path d="M11.5599 16.7055H4.05012C2.80898 16.7055 1.80005 15.6651 1.80005 14.3853C1.80005 13.1055 2.80898 12.0651 4.05012 12.0651H10.3503C12.0874 12.0651 13.5004 10.608 13.5004 8.81681C13.5004 7.0256 12.0874 5.56851 10.3503 5.56851H5.97528C5.64475 6.23662 5.23543 6.86007 4.75664 7.42468H10.3503C11.0946 7.42468 11.7004 8.04928 11.7004 8.81681C11.7004 9.58433 11.0946 10.2089 10.3503 10.2089H4.05012C1.81715 10.2089 0 12.0827 0 14.3853C0 16.6879 1.81715 18.5617 4.05012 18.5617H12.6841C12.2424 17.9889 11.8653 17.3661 11.5599 16.7055ZM2.70008 0C1.21144 0 0 1.2492 0 2.78426C0 5.74299 2.70008 7.42468 2.70008 7.42468C2.70008 7.42468 5.40016 5.74206 5.40016 2.78426C5.40016 1.2492 4.18873 0 2.70008 0ZM2.70008 4.17638C2.52273 4.17632 2.34713 4.14024 2.18331 4.0702C2.01948 4.00016 1.87063 3.89753 1.74527 3.76817C1.61991 3.63882 1.52048 3.48526 1.45267 3.31628C1.38485 3.1473 1.34998 2.9662 1.35004 2.78333C1.3501 2.60045 1.38509 2.41937 1.45301 2.25044C1.52094 2.08151 1.62046 1.92802 1.74591 1.79875C1.87135 1.66948 2.02026 1.56695 2.18414 1.49703C2.34801 1.4271 2.52363 1.39114 2.70098 1.3912C3.05915 1.39132 3.40261 1.53816 3.65579 1.79941C3.90897 2.06066 4.05114 2.41492 4.05102 2.78426C4.0509 3.15359 3.9085 3.50776 3.65515 3.76883C3.4018 4.0299 3.05825 4.17651 2.70008 4.17638Z" fill="#797979"/>
<path d="M17.7188 11.8125C16.3232 11.8125 15.1875 12.9481 15.1875 14.3436C15.1875 17.0334 17.7188 18.5622 17.7188 18.5622C17.7188 18.5622 20.2502 17.0326 20.2502 14.3436C20.2502 12.9481 19.1144 11.8125 17.7188 11.8125ZM17.7188 15.6092C17.5526 15.6092 17.3879 15.5764 17.2344 15.5127C17.0808 15.449 16.9412 15.3557 16.8237 15.2381C16.7062 15.1205 16.613 14.9809 16.5494 14.8273C16.4858 14.6737 16.4531 14.5091 16.4532 14.3428C16.4532 14.1766 16.486 14.0119 16.5497 13.8584C16.6134 13.7048 16.7067 13.5653 16.8243 13.4477C16.9419 13.3302 17.0815 13.237 17.2351 13.1734C17.3888 13.1099 17.5534 13.0772 17.7197 13.0772C18.0555 13.0773 18.3774 13.2108 18.6148 13.4483C18.8522 13.6858 18.9854 14.0079 18.9853 14.3436C18.9852 14.6794 18.8517 15.0014 18.6142 15.2387C18.3767 15.4761 18.0546 15.6093 17.7188 15.6092Z" fill="#797979"/>
</svg>
