<svg width="35" height="35" viewBox="0 0 35 35" fill="none" xmlns="http://www.w3.org/2000/svg">
<path d="M6.41765 5.4375C5.74043 5.4375 5.18945 5.99519 5.18945 6.68075C5.18945 7.36624 5.74043 7.92393 6.41765 7.92393C7.09495 7.92393 7.64592 7.36624 7.64592 6.68075C7.64592 5.99519 7.09495 5.4375 6.41765 5.4375Z" fill="#558F69"/>
<path d="M25.2097 32.503C25.7749 31.1232 25.128 29.5409 23.7649 28.9689C22.4018 28.3968 20.8386 29.0516 20.2734 30.4314C19.7082 31.8111 20.355 33.3934 21.7182 33.9655C23.0813 34.5376 24.6445 33.8828 25.2097 32.503Z" fill="#558F69"/>
<path d="M17.946 31.4579C17.946 31.179 17.9707 30.9061 18.0156 30.64H4.16614C3.04118 30.64 2.12592 29.7136 2.12592 28.5748C2.12592 27.4361 3.04118 26.5097 4.16614 26.5097H13.7136C15.8843 26.5097 17.6505 24.7221 17.6505 22.5248C17.6505 20.3276 15.8844 18.54 13.7136 18.54H9.50926L8.24705 20.6759H13.7136C14.7208 20.6759 15.5402 21.5053 15.5402 22.5248C15.5402 23.5443 14.7207 24.3737 13.7136 24.3737H4.16614C1.87757 24.3737 0.0156367 26.2584 0.0156367 28.5748C0.0156367 30.8913 1.87757 32.776 4.16614 32.776H18.1277C18.0072 32.3472 17.9461 31.9037 17.946 31.4579ZM34.9986 16.6746C34.9904 16.4686 34.9235 16.2694 34.806 16.1011C34.6884 15.9327 34.5253 15.8024 34.3362 15.7259L23.1207 11.1849C22.9606 11.1201 22.7872 11.096 22.6158 11.1147C22.4444 11.1334 22.2801 11.1944 22.1373 11.2922C21.9945 11.3901 21.8776 11.5218 21.7968 11.676C21.716 11.8301 21.6737 12.002 21.6736 12.1765V26.7375C22.0196 26.6579 22.3733 26.6177 22.7281 26.6174C23.0833 26.6177 23.4374 26.658 23.7838 26.7377V23.0144L34.4133 17.674C34.5958 17.5824 34.7481 17.4392 34.852 17.2619C34.9558 17.0846 35.0067 16.8806 34.9986 16.6746ZM12.9401 6.54897C12.9401 2.93209 10.0434 0 6.47006 0C2.89676 0 0 2.93209 0 6.54897V6.57613C0 7.88345 0.345579 9.16693 1.00089 10.2935L5.92448 18.7576C6.14736 19.1407 6.69417 19.1426 6.91964 18.7611L11.9137 10.3098C12.5854 9.17312 12.9401 7.87343 12.9401 6.54897ZM6.41919 10.06C4.57836 10.06 3.08071 8.54406 3.08071 6.68077C3.08071 4.81749 4.57836 3.30158 6.41919 3.30158C8.26003 3.30158 9.75767 4.81749 9.75767 6.68077C9.75767 8.54413 8.26003 10.06 6.41919 10.06Z" fill="#558F69"/>
</svg>
