<svg width="24" height="18" viewBox="0 0 24 18" fill="none" xmlns="http://www.w3.org/2000/svg">
<path d="M11 5.72691C11 7.9388 9.21 9.73032 7 9.73032C4.79 9.73032 3 7.9388 3 5.72691C3 3.51503 4.79 1.72351 7 1.72351C9.21 1.72351 11 3.51503 11 5.72691ZM11 12.4526V17.7371H0V15.7354C0 13.5236 3.13 11.732 7 11.732C8.5 11.732 9.87 12.0023 11 12.4526ZM24 17.7371H13V0.722656H24V17.7371ZM16 9.2299C16 8.56629 16.2634 7.92986 16.7322 7.46062C17.2011 6.99138 17.837 6.72777 18.5 6.72777C19.163 6.72777 19.7989 6.99138 20.2678 7.46062C20.7366 7.92986 21 8.56629 21 9.2299C21 9.8935 20.7366 10.5299 20.2678 10.9992C19.7989 11.4684 19.163 11.732 18.5 11.732C17.837 11.732 17.2011 11.4684 16.7322 10.9992C16.2634 10.5299 16 9.8935 16 9.2299ZM22 4.72606C21.4696 4.72606 20.9609 4.51517 20.5858 4.13978C20.2107 3.76439 20 3.25524 20 2.72436H17C17 3.83531 16.11 4.72606 15 4.72606V13.7337C15.5304 13.7337 16.0391 13.9446 16.4142 14.32C16.7893 14.6954 17 15.2045 17 15.7354H20C20 14.6345 20.9 13.7337 22 13.7337V4.72606Z" fill="#797979"/>
</svg>
